<?xml version="1.0" standalone="no"?>
   <!DOCTYPE svg PUBLIC "-//W3C//DTD SVG 1.1//EN" 
   "http://www.w3.org/Graphics/SVG/1.1/DTD/svg11.dtd"><svg id="svg" version="1.1" width="1335" height="2133" xmlns="http://www.w3.org/2000/svg"><path d="M581.073 184.811 C 502.325 202.352,413.968 245.208,328.362 307.384 C 242.074 370.055,220.261 392.782,191.236 450.256 C 161.518 509.101,157.894 560.344,178.631 628.500 C 184.737 648.570,187.870 654.097,197.765 662.250 C 204.272 667.613,210.362 672.000,211.298 672.000 C 215.908 672.000,211.943 663.651,202.810 654.126 C 189.442 640.186,186.000 623.010,186.000 570.237 C 186.000 507.548,199.358 461.854,229.549 421.261 C 249.289 394.722,291.943 359.225,352.500 318.941 C 398.347 288.442,420.195 275.857,473.922 248.996 C 516.360 227.779,517.754 227.321,535.422 228.816 C 558.149 230.739,585.470 240.962,598.534 252.432 C 611.961 264.222,621.384 280.941,636.163 319.205 C 649.094 352.681,659.001 367.628,671.380 372.335 C 689.822 379.346,698.469 364.639,693.312 335.029 C 686.608 296.532,673.024 267.495,650.259 243.000 C 627.926 218.971,622.410 220.859,642.114 245.787 C 657.794 265.623,670.313 289.062,665.996 290.501 C 664.194 291.102,660.420 288.852,657.609 285.502 C 654.799 282.151,647.338 273.263,641.028 265.750 C 630.393 253.085,586.574 223.156,566.003 214.507 L 557.268 210.834 564.943 208.908 C 569.165 207.848,579.547 208.467,588.016 210.284 C 606.558 214.260,610.095 212.271,596.752 205.372 L 586.946 200.301 596.771 196.170 C 641.014 177.567,693.137 187.414,727.725 220.910 C 744.674 237.324,765.607 270.923,770.709 289.902 C 778.681 319.554,789.056 348.882,794.942 358.406 C 810.219 383.125,834.061 370.900,833.960 338.399 C 833.866 308.175,804.687 249.478,777.042 223.900 C 762.485 210.431,747.181 201.026,739.800 201.011 C 735.621 201.003,737.222 203.264,745.800 209.484 C 768.776 226.146,788.685 249.738,802.913 277.163 C 809.004 288.904,809.720 292.331,806.510 294.367 C 800.197 298.368,798.980 297.627,794.813 287.250 C 784.033 260.407,746.369 215.158,723.792 201.927 C 716.756 197.803,711.000 193.909,711.000 193.272 C 711.000 190.544,740.961 195.919,757.500 201.615 C 791.930 213.473,813.769 233.789,832.213 271.116 C 838.065 282.961,845.071 303.418,847.781 316.576 C 856.151 357.217,870.999 379.493,884.797 372.109 C 893.784 367.299,894.933 358.485,889.661 334.789 C 881.913 299.965,849.500 241.551,829.429 226.242 C 815.516 215.631,812.296 219.393,824.508 231.992 C 829.787 237.438,833.264 242.736,832.235 243.765 C 831.207 244.793,826.056 239.984,820.788 233.077 C 808.848 217.423,784.341 200.087,762.311 191.711 C 749.214 186.731,739.482 185.405,718.259 185.706 C 700.665 185.956,686.455 184.483,678.132 181.547 C 659.276 174.894,619.609 176.228,581.073 184.811 M778.827 191.471 C 777.987 192.830,788.034 198.331,801.153 203.695 C 833.941 217.101,853.336 235.363,874.517 272.771 C 883.600 288.813,895.093 313.068,900.058 326.671 C 905.023 340.275,911.827 356.780,915.178 363.350 C 925.049 382.697,942.000 384.538,942.000 366.263 C 942.000 342.864,921.126 290.964,897.268 255.046 L 885.045 236.643 896.933 245.071 C 906.222 251.657,912.435 260.716,925.345 286.500 C 934.433 304.650,946.028 330.975,951.111 345.000 C 962.709 376.998,967.982 385.580,973.323 381.147 C 976.423 378.574,978.264 381.957,982.122 397.313 C 984.805 407.994,987.000 420.168,987.000 424.367 C 987.000 432.006,982.944 434.573,979.550 429.082 C 975.392 422.353,892.508 408.292,887.358 413.442 C 884.241 416.559,892.199 418.218,927.000 421.705 C 946.586 423.668,974.218 434.329,981.048 442.558 C 983.969 446.077,983.714 448.490,979.786 454.485 C 973.312 464.366,970.833 463.966,967.370 452.480 C 964.958 444.481,961.866 442.042,948.000 437.205 C 938.852 434.014,919.168 430.724,903.824 429.820 C 880.282 428.434,875.882 427.354,874.371 422.595 C 873.395 419.518,871.337 417.000,869.798 417.000 C 865.770 417.000,866.346 425.890,871.468 442.773 C 873.925 450.873,875.950 457.838,875.968 458.250 C 875.985 458.663,869.444 459.000,861.431 459.000 L 846.862 459.000 841.892 438.861 C 839.159 427.785,835.516 417.323,833.796 415.611 C 831.793 413.618,803.514 412.566,755.085 412.683 C 664.438 412.903,631.949 417.591,589.500 436.577 C 581.250 440.267,550.875 453.765,522.000 466.572 C 438.838 503.459,428.033 511.175,434.762 528.873 C 442.772 549.941,459.876 549.142,517.500 525.008 C 615.940 483.779,614.864 484.123,667.500 477.163 C 735.965 468.111,866.413 464.721,904.500 471.004 C 914.400 472.638,933.829 475.391,947.675 477.124 C 979.441 481.099,991.296 486.060,998.923 498.569 C 1007.715 512.989,1006.900 526.115,996.755 533.505 C 992.221 536.808,989.543 540.543,990.805 541.805 C 994.190 545.190,1009.083 533.057,1012.169 524.398 C 1018.684 506.119,1003.574 479.799,984.111 475.524 L 975.202 473.568 987.522 461.848 L 999.841 450.129 997.813 432.872 C 994.503 404.709,984.161 358.440,975.127 331.382 C 961.216 289.712,940.072 262.487,903.000 238.512 C 882.434 225.211,855.000 214.253,855.000 219.338 C 855.000 220.974,859.050 223.724,864.000 225.450 C 868.950 227.175,873.000 230.344,873.000 232.492 C 873.000 234.640,877.725 243.418,883.500 252.000 C 889.275 260.582,893.982 271.180,893.960 275.551 C 893.928 281.942,891.635 279.383,882.262 262.500 C 863.116 228.012,837.286 206.227,801.574 194.445 C 782.874 188.276,780.956 188.025,778.827 191.471 M626.097 196.903 C 625.050 197.950,631.912 203.438,641.347 209.097 C 650.781 214.757,663.009 223.688,668.521 228.944 C 681.581 241.399,711.618 302.864,721.448 337.250 C 730.284 368.158,732.767 372.000,743.902 372.000 C 768.991 372.000,767.549 335.364,740.299 280.500 C 728.898 257.545,715.874 240.000,710.234 240.000 C 708.781 240.000,710.370 243.902,713.766 248.672 C 720.555 258.206,745.449 309.521,748.491 320.250 C 752.700 335.098,744.384 325.760,736.468 306.750 C 718.964 264.711,680.961 219.094,649.803 202.722 C 634.800 194.839,629.469 193.531,626.097 196.903 M473.276 311.738 C 462.152 314.604,452.140 317.860,451.026 318.974 C 445.903 324.097,455.047 324.799,476.323 320.915 C 508.768 314.994,520.179 315.899,532.608 325.379 C 543.796 333.912,552.003 347.706,558.166 368.333 C 561.844 380.646,569.590 384.794,567.476 373.320 C 564.909 359.379,553.594 334.608,545.674 325.587 C 528.198 305.683,510.167 302.234,473.276 311.738 M367.826 333.061 C 359.548 353.748,361.685 378.784,376.713 437.197 C 404.405 544.838,428.608 643.873,430.623 657.787 C 433.191 675.520,438.000 679.402,438.000 663.743 C 438.000 648.240,412.195 526.263,392.758 449.890 C 378.762 394.894,377.101 384.985,376.817 354.751 C 376.643 336.189,375.634 321.002,374.576 321.001 C 373.517 321.001,370.480 326.427,367.826 333.061 M402.225 342.919 C 392.351 346.361,385.900 354.000,392.870 354.000 C 396.938 354.000,420.000 342.473,420.000 340.439 C 420.000 338.130,413.275 339.068,402.225 342.919 M459.000 390.537 C 459.000 396.439,466.054 414.000,468.426 414.000 C 473.082 414.000,473.219 409.109,468.867 398.250 C 464.543 387.461,459.000 383.128,459.000 390.537 M273.000 433.225 C 257.173 445.038,231.462 471.010,235.625 470.978 C 237.206 470.966,246.545 463.451,256.378 454.277 C 266.210 445.103,278.023 435.372,282.628 432.652 C 290.502 428.001,293.757 422.909,288.750 423.074 C 287.513 423.115,280.425 427.683,273.000 433.225 M630.019 456.069 C 631.806 462.707,632.596 469.227,631.774 470.557 C 630.062 473.326,597.586 481.602,595.764 479.733 C 595.102 479.055,593.631 472.252,592.495 464.616 L 590.428 450.731 601.964 447.676 C 623.612 441.942,626.443 442.789,630.019 456.069 M567.041 468.750 C 567.063 470.813,567.896 475.538,568.891 479.250 C 570.584 485.567,569.772 486.000,556.224 486.000 L 541.748 486.000 552.124 475.748 C 563.384 464.622,566.977 462.936,567.041 468.750 M208.670 504.225 C 199.858 523.245,196.537 541.762,199.298 556.480 C 202.266 572.299,206.990 569.124,207.077 551.250 C 207.120 542.588,210.393 526.050,214.351 514.500 C 223.288 488.418,219.320 481.239,208.670 504.225 M258.017 497.250 C 258.066 503.917,264.678 522.000,267.066 522.000 C 269.520 522.000,268.579 509.366,265.335 498.750 C 264.109 494.741,257.989 493.486,258.017 497.250 M711.000 500.946 C 675.687 505.434,614.214 518.552,570.000 531.035 C 482.127 555.843,444.627 584.305,460.182 614.386 C 469.467 632.340,479.776 631.063,553.789 602.793 C 650.208 565.965,670.127 561.612,779.996 553.354 C 867.135 546.804,955.467 551.312,999.700 564.564 C 1021.269 571.026,1030.382 598.806,1016.658 616.253 C 1007.650 627.706,1011.639 629.172,1021.127 617.897 C 1027.315 610.543,1029.000 605.346,1029.000 593.621 C 1029.000 567.412,1017.619 554.568,990.559 550.241 C 978.900 548.377,978.543 547.980,980.070 538.567 C 980.940 533.208,980.084 525.894,978.168 522.315 C 974.505 515.469,974.092 515.529,993.000 520.135 C 993.825 520.336,994.945 519.200,995.489 517.612 C 996.033 516.023,988.161 511.613,977.996 507.811 C 963.664 502.452,952.327 500.743,927.507 500.200 L 895.500 499.500 896.292 521.642 L 897.084 543.784 881.464 541.712 C 862.329 539.174,861.000 538.398,861.000 529.771 C 861.000 523.546,855.646 504.322,853.057 501.253 C 850.975 498.784,730.062 498.523,711.000 500.946 M649.335 531.750 C 649.965 533.813,651.209 539.739,652.100 544.921 C 653.712 554.305,653.643 554.360,634.493 559.171 C 623.918 561.827,614.746 564.000,614.108 564.000 C 612.385 564.000,605.395 539.605,606.735 538.265 C 607.800 537.200,640.546 528.815,645.844 528.250 C 647.133 528.112,648.704 529.688,649.335 531.750 M321.609 551.926 C 294.268 561.913,258.225 582.728,233.127 603.025 C 219.848 613.764,208.353 624.442,207.582 626.753 C 205.355 633.435,212.893 629.211,239.339 608.958 C 266.777 587.946,279.167 585.249,253.248 605.931 C 244.004 613.308,232.440 624.394,227.550 630.568 C 219.414 640.840,218.925 642.749,221.776 653.075 C 224.729 663.771,224.336 664.927,214.212 675.295 C 199.298 690.569,197.721 704.672,208.519 726.212 C 217.728 744.583,224.695 753.543,228.123 751.424 C 229.399 750.635,225.668 740.681,219.830 729.303 C 211.164 712.413,209.584 706.658,211.218 697.946 C 213.711 684.660,233.555 667.315,270.000 646.567 C 332.412 611.035,343.580 604.040,356.123 592.624 C 366.707 582.991,369.620 578.189,370.304 569.252 C 370.777 563.065,369.583 555.841,367.650 553.197 C 362.256 545.821,340.003 545.206,321.609 551.926 M586.179 553.745 C 590.416 564.788,588.326 567.002,573.750 566.912 L 559.500 566.824 569.297 557.912 C 580.431 547.784,583.592 547.004,586.179 553.745 M793.500 584.955 C 788.550 586.239,774.646 587.450,762.602 587.645 C 738.262 588.040,645.483 602.441,604.181 612.235 C 571.361 620.018,515.858 640.178,499.584 650.228 C 482.333 660.881,477.144 668.490,477.067 683.250 C 476.947 706.062,490.208 712.786,516.373 703.181 C 661.540 649.891,675.161 645.720,732.048 637.148 L 784.500 629.244 873.000 632.816 C 968.006 636.651,1010.179 639.786,1024.500 644.078 C 1030.543 645.889,1035.323 650.461,1039.048 657.995 C 1045.346 670.730,1044.203 679.119,1034.485 691.473 L 1027.840 699.921 1024.148 689.710 C 1019.090 675.722,1019.120 675.551,1026.750 674.393 L 1033.500 673.368 1026.000 669.053 C 1017.916 664.402,959.869 660.876,946.523 664.226 C 937.741 666.430,936.738 672.996,944.331 678.580 C 947.263 680.736,955.021 689.121,961.571 697.212 C 975.932 714.953,987.019 720.045,1018.282 723.257 C 1049.120 726.425,1057.611 733.554,1057.282 755.998 C 1057.137 765.950,1055.251 772.855,1051.567 776.925 C 1043.948 785.345,1041.000 784.528,1041.000 774.000 C 1041.000 767.789,1042.472 765.000,1045.750 765.000 C 1048.363 765.000,1049.941 763.313,1049.259 761.250 C 1048.456 758.825,1037.661 756.647,1018.717 755.088 L 989.416 752.676 979.393 764.088 C 973.881 770.365,966.955 779.888,964.003 785.250 C 958.966 794.400,957.630 795.000,942.295 795.000 C 926.148 795.000,925.701 794.754,904.600 774.294 C 884.712 755.010,882.090 753.443,866.427 751.486 C 845.431 748.863,774.190 754.561,730.500 762.359 C 668.390 773.444,595.092 794.859,555.923 813.364 C 537.636 822.004,516.000 842.529,516.000 851.237 C 516.000 862.669,531.175 878.735,542.128 878.900 C 548.732 879.000,575.420 869.786,636.867 846.194 C 676.425 831.005,735.377 815.675,787.699 806.971 C 825.534 800.677,830.867 800.547,940.941 803.235 C 1043.739 805.745,1056.141 806.586,1066.726 811.760 C 1082.221 819.334,1086.561 830.800,1078.181 842.024 C 1069.262 853.969,1062.465 857.497,1058.961 852.000 C 1054.773 845.431,1055.351 843.000,1061.100 843.000 C 1065.180 843.000,1065.450 842.250,1062.450 839.250 C 1058.368 835.168,980.787 833.734,971.478 837.568 C 966.960 839.429,966.845 841.307,970.334 856.318 L 974.212 873.000 956.512 873.000 C 945.023 873.000,938.370 871.684,937.554 869.250 C 936.862 867.188,934.812 859.703,932.997 852.618 C 928.436 834.809,923.773 833.621,872.335 837.163 C 764.492 844.589,689.926 856.885,643.861 874.838 C 628.813 880.703,604.425 890.046,589.668 895.600 C 557.444 907.727,548.796 913.751,543.453 927.789 C 540.050 936.730,540.051 939.789,543.458 946.897 C 550.976 962.584,560.206 962.777,596.191 947.998 C 660.193 921.714,746.279 900.273,812.412 894.145 C 831.710 892.357,862.350 889.230,880.500 887.197 C 898.650 885.164,947.925 883.500,990.000 883.500 C 1079.009 883.500,1089.947 885.353,1096.727 901.580 C 1102.756 916.011,1102.177 919.618,1092.045 930.703 C 1084.539 938.915,1082.605 939.772,1080.091 936.000 C 1075.638 929.318,1076.373 924.000,1081.750 924.000 C 1084.363 924.000,1085.943 922.313,1085.262 920.250 C 1083.979 916.361,1049.462 912.989,1004.250 912.336 C 977.256 911.946,977.636 911.244,986.557 945.000 L 991.710 964.500 1048.182 966.077 C 1102.820 967.602,1104.839 967.881,1110.327 974.659 C 1119.654 986.178,1115.992 1008.802,1103.064 1019.532 C 1099.540 1022.457,1098.399 1021.857,1096.943 1016.313 C 1095.959 1012.566,1096.469 1009.050,1098.077 1008.500 C 1118.114 1001.646,1008.277 999.223,942.159 1005.060 C 923.096 1006.743,891.975 1009.503,873.000 1011.193 C 769.206 1020.438,607.640 1060.088,586.137 1081.591 C 577.179 1090.548,573.808 1108.826,579.308 1118.613 C 588.436 1134.857,602.811 1132.977,688.611 1104.315 C 755.384 1082.009,812.460 1070.442,897.000 1062.083 C 955.340 1056.315,1124.108 1049.391,1133.217 1052.392 C 1135.262 1053.066,1138.225 1058.541,1139.801 1064.558 C 1146.778 1091.189,1146.871 1092.146,1142.314 1090.397 C 1133.395 1086.975,1129.927 1096.779,1133.595 1115.046 C 1137.798 1135.975,1137.956 1186.518,1133.930 1222.500 C 1128.875 1267.675,1107.968 1300.699,1066.500 1329.010 L 1051.500 1339.251 1066.500 1322.349 C 1112.264 1270.781,1130.326 1203.316,1117.719 1131.036 C 1112.395 1100.513,1106.640 1088.052,1098.583 1089.603 C 1095.813 1090.137,1091.735 1094.352,1089.521 1098.970 C 1086.128 1106.051,1086.241 1114.569,1090.249 1153.355 C 1092.862 1178.649,1095.000 1207.635,1095.000 1217.767 C 1095.000 1247.232,1074.582 1300.376,1054.886 1322.178 C 1048.899 1328.805,1044.000 1336.178,1044.000 1338.562 C 1044.000 1344.739,985.611 1371.081,946.077 1382.741 C 871.779 1404.653,829.602 1411.217,776.237 1409.170 C 730.705 1407.425,695.311 1398.267,652.144 1377.064 C 608.347 1355.550,597.056 1332.028,548.438 1161.000 C 543.513 1143.675,535.683 1111.916,531.039 1090.425 C 519.867 1038.728,516.491 1026.657,512.514 1024.200 C 510.151 1022.739,509.807 1026.387,511.324 1036.823 C 514.122 1056.080,538.464 1165.648,545.910 1192.500 C 549.112 1204.050,555.910 1228.712,561.015 1247.305 C 583.716 1329.974,608.776 1370.226,653.380 1395.663 C 662.114 1400.644,668.784 1406.245,668.201 1408.110 C 665.829 1415.708,646.439 1421.991,625.350 1421.995 C 596.886 1422.002,526.729 1416.316,510.000 1412.647 C 483.111 1406.750,447.195 1394.620,440.450 1389.158 L 433.552 1383.572 439.526 1376.897 C 442.812 1373.226,468.450 1358.843,496.500 1344.934 C 554.731 1316.060,549.783 1314.401,487.500 1341.917 C 447.676 1359.511,423.000 1375.780,423.000 1384.445 C 423.000 1386.505,425.997 1392.001,429.661 1396.659 L 436.322 1405.127 423.542 1397.944 C 405.662 1387.895,378.065 1358.114,365.212 1335.000 C 354.459 1315.660,339.000 1268.715,339.000 1255.398 C 339.000 1239.997,391.792 1208.827,453.000 1188.088 C 501.521 1171.647,513.794 1161.524,508.890 1141.987 C 506.375 1131.965,495.468 1119.029,486.733 1115.708 C 478.073 1112.416,437.753 1123.526,412.521 1136.157 C 393.159 1145.851,341.766 1179.971,334.598 1187.892 C 328.120 1195.050,334.054 1196.634,341.764 1189.804 C 344.369 1187.497,351.225 1182.955,357.000 1179.712 C 362.775 1176.469,372.900 1170.714,379.500 1166.923 C 395.779 1157.573,386.936 1167.025,367.255 1180.011 C 353.796 1188.892,352.530 1190.725,352.842 1200.874 C 353.030 1206.993,352.639 1212.000,351.973 1212.000 C 351.306 1212.000,345.360 1209.245,338.760 1205.877 C 326.640 1199.694,321.914 1192.117,318.886 1174.009 C 317.447 1165.401,318.518 1163.743,330.399 1156.197 C 353.070 1141.798,388.594 1125.283,416.540 1116.150 C 450.771 1104.964,478.792 1090.863,483.216 1082.596 C 490.966 1068.115,491.991 1058.411,486.715 1049.479 C 479.576 1037.394,463.549 1032.919,443.759 1037.487 C 411.916 1044.838,356.516 1075.678,327.750 1102.068 C 307.978 1120.206,312.644 1123.883,333.750 1106.794 C 355.421 1089.248,391.094 1066.607,402.000 1063.478 C 413.261 1060.246,406.594 1065.825,384.000 1078.539 C 356.559 1093.980,336.051 1110.251,334.067 1118.156 C 333.137 1121.862,333.775 1128.907,335.485 1133.812 C 338.455 1142.332,337.927 1143.208,323.631 1153.479 C 313.145 1161.012,309.113 1165.765,310.156 1169.364 C 310.974 1172.189,313.205 1180.575,315.115 1188.000 C 317.024 1195.425,320.142 1203.407,322.043 1205.738 C 326.815 1211.588,350.407 1221.721,354.035 1219.479 C 355.666 1218.471,357.000 1218.785,357.000 1220.176 C 357.000 1221.568,352.816 1225.178,347.703 1228.198 C 342.589 1231.219,336.490 1238.276,334.148 1243.880 C 330.375 1252.909,330.539 1257.241,335.586 1281.947 C 344.208 1324.150,359.152 1352.302,388.436 1381.500 C 423.743 1416.705,458.880 1432.311,517.003 1438.601 C 526.629 1439.642,533.835 1441.165,533.016 1441.984 C 532.197 1442.803,541.308 1463.279,553.262 1487.486 C 565.216 1511.694,579.472 1541.288,584.942 1553.250 C 590.412 1565.213,596.183 1575.000,597.765 1575.000 C 599.347 1575.000,599.846 1572.925,598.872 1570.389 C 597.899 1567.853,594.971 1558.740,592.365 1550.139 C 589.760 1541.537,576.504 1513.575,562.909 1488.000 L 538.190 1441.500 607.345 1439.656 C 645.380 1438.641,684.600 1436.287,694.500 1434.423 C 719.563 1429.705,718.814 1429.420,722.884 1445.250 C 731.634 1479.279,754.019 1560.358,760.363 1581.000 C 768.207 1606.522,773.086 1644.000,768.564 1644.000 C 766.962 1644.000,764.875 1640.963,763.927 1637.250 C 761.243 1626.741,744.617 1608.437,731.829 1601.913 C 717.344 1594.523,689.870 1593.965,678.257 1600.825 C 667.159 1607.381,651.196 1631.466,649.007 1644.960 C 646.320 1661.513,651.992 1658.251,658.333 1639.596 C 666.600 1615.275,680.343 1605.000,704.608 1605.000 C 720.476 1605.000,741.962 1619.332,750.474 1635.595 C 770.968 1674.750,744.058 1734.000,705.780 1734.000 C 676.046 1734.000,664.683 1719.449,625.542 1631.250 C 617.670 1613.513,609.909 1599.000,608.294 1599.000 C 606.679 1599.000,606.318 1601.363,607.491 1604.250 C 608.665 1607.138,610.671 1612.875,611.950 1617.000 C 616.264 1630.919,636.646 1678.342,648.248 1701.455 C 654.585 1714.080,666.997 1732.305,675.830 1741.955 C 696.584 1764.627,700.495 1779.822,700.425 1837.500 C 700.368 1884.294,696.065 1913.385,685.558 1938.000 C 677.822 1956.126,678.447 1961.286,687.089 1950.627 C 694.916 1940.973,705.142 1912.352,707.130 1894.533 C 710.011 1868.718,714.104 1868.693,712.657 1894.500 L 711.312 1918.500 719.926 1893.000 C 724.664 1878.975,730.258 1853.325,732.357 1836.000 L 736.173 1804.500 763.745 1777.500 C 808.061 1734.103,822.595 1697.088,816.162 1644.000 C 814.262 1628.325,809.517 1603.350,805.617 1588.500 L 798.526 1561.500 815.981 1558.870 C 831.596 1556.517,834.812 1556.998,846.469 1563.427 C 867.288 1574.909,870.477 1584.873,873.695 1648.500 C 875.902 1692.143,875.222 1785.467,871.914 1892.956 C 871.593 1903.389,872.634 1906.632,876.548 1907.387 C 879.324 1907.923,883.018 1905.703,884.757 1902.454 C 886.610 1898.992,888.660 1862.783,889.709 1815.007 L 891.498 1733.469 900.120 1720.984 C 911.261 1704.852,921.767 1663.676,921.675 1636.500 C 921.593 1612.192,908.110 1527.649,901.265 1508.518 C 898.703 1501.358,893.453 1484.025,889.598 1470.000 C 885.743 1455.975,880.404 1439.415,877.733 1433.199 C 872.892 1421.932,872.900 1421.889,880.634 1418.949 C 884.900 1417.327,890.578 1416.000,893.251 1416.000 C 903.708 1416.000,972.343 1390.510,1006.500 1373.940 C 1053.395 1351.192,1083.908 1330.722,1108.169 1305.734 C 1134.320 1278.801,1141.687 1268.689,1154.608 1242.000 L 1165.500 1219.500 1165.339 1176.000 C 1165.171 1130.361,1160.107 1096.875,1148.808 1066.675 C 1142.082 1048.700,1134.942 1044.000,1114.359 1044.000 C 1102.969 1044.000,1101.000 1043.109,1101.000 1037.958 C 1101.000 1034.634,1105.167 1028.192,1110.259 1023.642 C 1116.833 1017.768,1120.299 1011.192,1122.209 1000.968 C 1127.064 974.981,1117.401 962.890,1089.000 959.417 C 1078.139 958.089,1076.968 946.412,1087.432 943.785 C 1099.549 940.744,1107.578 925.330,1106.082 907.983 C 1104.426 888.784,1094.874 878.925,1075.853 876.781 C 1063.718 875.413,1062.000 874.338,1062.000 868.110 C 1062.000 863.960,1063.778 861.000,1066.270 861.000 C 1074.190 861.000,1088.749 845.891,1090.663 835.684 C 1094.360 815.979,1079.275 799.431,1054.523 796.038 C 1040.194 794.074,1037.124 790.635,1046.922 787.525 C 1058.179 783.952,1065.000 771.378,1065.000 754.200 C 1065.000 740.586,1063.614 736.630,1055.675 727.588 C 1049.170 720.179,1042.887 716.413,1034.902 715.136 C 1022.546 713.161,1021.655 708.352,1032.734 703.437 C 1036.374 701.821,1042.512 695.782,1046.372 690.015 C 1061.709 667.109,1043.671 636.000,1015.052 636.000 C 1009.046 636.000,1008.000 634.502,1008.000 625.905 C 1008.000 620.325,1005.295 612.370,1001.951 608.120 L 995.903 600.430 1002.701 599.231 C 1008.634 598.185,1007.984 597.354,997.598 592.703 C 983.286 586.296,917.151 582.093,913.881 587.384 C 912.784 589.158,913.308 596.952,915.045 604.703 C 916.783 612.454,917.647 619.353,916.966 620.034 C 916.285 620.715,907.881 621.549,898.292 621.886 L 880.856 622.500 875.849 603.000 L 870.843 583.500 836.671 583.060 C 817.877 582.818,798.450 583.671,793.500 584.955 M670.547 624.215 C 671.660 629.283,672.105 633.792,671.535 634.237 C 670.966 634.681,661.986 637.070,651.581 639.546 L 632.661 644.047 628.109 635.245 C 625.606 630.403,624.425 625.555,625.486 624.471 C 627.467 622.446,654.559 615.938,663.512 615.337 C 666.790 615.116,669.223 618.187,670.547 624.215 M346.500 629.832 C 316.694 637.782,253.952 677.403,240.210 696.953 C 233.458 706.558,241.140 702.384,269.393 681.094 C 282.954 670.876,295.627 663.042,297.555 663.685 C 299.484 664.328,295.857 668.071,289.494 672.004 C 271.034 683.413,242.813 707.982,240.269 714.859 C 238.985 718.330,239.257 726.379,240.873 732.747 C 243.507 743.124,243.030 745.163,236.273 752.412 C 219.644 770.250,218.007 783.930,229.573 808.379 C 236.854 823.770,246.000 835.086,246.000 828.704 C 246.000 827.037,241.810 816.721,236.690 805.778 C 229.922 791.316,227.937 783.659,229.422 777.743 C 230.546 773.266,242.498 758.733,255.982 745.448 C 277.657 724.093,285.023 719.083,319.500 702.244 C 340.950 691.767,362.889 679.932,368.253 675.943 C 378.122 668.604,387.000 654.889,387.000 646.981 C 387.000 633.774,365.636 624.728,346.500 629.832 M606.948 645.750 C 606.232 646.988,601.338 647.951,596.073 647.892 L 586.500 647.784 595.480 640.447 C 603.593 633.819,604.643 633.612,606.355 638.305 C 607.397 641.162,607.663 644.513,606.948 645.750 M832.500 669.316 C 701.832 675.916,657.563 684.774,564.000 723.047 C 505.329 747.047,491.645 760.003,502.009 781.738 C 509.158 796.730,517.442 797.371,545.026 785.069 C 584.758 767.349,657.253 741.767,682.388 736.597 C 695.526 733.895,720.501 729.742,737.888 727.368 C 755.275 724.994,778.275 721.717,789.000 720.086 C 799.725 718.455,822.675 717.073,840.000 717.014 C 857.325 716.956,873.013 715.916,874.862 714.704 C 879.028 711.973,903.000 672.990,903.000 668.947 C 903.000 665.751,903.098 665.750,832.500 669.316 M936.088 686.250 C 936.191 688.897,953.204 708.000,955.458 708.000 C 959.082 708.000,956.529 699.210,950.782 691.905 C 945.022 684.581,935.885 681.065,936.088 686.250 M903.819 695.131 C 895.479 707.879,896.435 742.179,905.540 756.823 C 918.797 778.146,942.060 783.402,957.010 768.451 C 966.553 758.908,970.655 743.262,967.718 727.605 C 964.708 711.560,959.138 710.701,961.529 726.651 C 965.198 751.112,948.930 774.646,932.655 768.424 C 911.069 760.171,901.379 725.539,914.649 704.068 C 918.142 698.416,921.000 692.264,921.000 690.396 C 921.000 683.813,909.073 687.100,903.819 695.131 M691.760 710.783 L 695.121 722.168 674.443 726.607 C 663.070 729.049,653.266 730.239,652.655 729.251 C 652.044 728.263,650.620 722.524,649.489 716.497 L 647.434 705.541 666.467 701.212 C 676.935 698.832,686.152 697.450,686.949 698.141 C 687.746 698.832,689.911 704.521,691.760 710.783 M372.051 714.167 C 352.307 716.985,308.433 738.648,276.129 761.528 C 249.909 780.099,244.175 785.175,246.637 787.637 C 247.616 788.616,256.986 783.109,267.458 775.398 C 277.931 767.688,290.550 759.429,295.500 757.045 C 303.511 753.186,303.840 753.199,298.500 757.163 C 295.200 759.612,284.738 767.368,275.250 774.397 C 257.027 787.899,256.348 789.633,260.625 811.688 C 262.782 822.810,262.114 824.887,252.994 835.438 C 244.955 844.738,243.000 849.565,243.000 860.119 C 243.000 874.859,250.668 892.003,261.986 902.564 C 272.480 912.358,278.803 907.854,269.206 897.421 C 247.692 874.032,246.324 859.678,263.544 838.019 C 275.838 822.556,296.955 808.979,355.901 778.640 C 399.212 756.348,411.000 746.744,411.000 733.747 C 411.000 716.481,398.801 710.349,372.051 714.167 M630.000 724.500 C 630.000 731.184,628.775 731.990,618.750 731.905 L 607.500 731.810 615.917 724.405 C 626.568 715.035,630.000 715.059,630.000 724.500 M453.580 764.038 C 456.370 781.828,457.729 785.271,460.766 782.234 C 463.616 779.384,457.815 749.101,454.188 747.894 C 451.821 747.107,451.648 751.715,453.580 764.038 M708.709 793.423 C 710.021 799.739,710.591 805.409,709.976 806.024 C 709.361 806.639,699.760 809.665,688.641 812.748 L 668.424 818.354 664.212 808.273 C 661.895 802.729,660.000 796.837,660.000 795.180 C 660.000 793.523,667.763 790.007,677.250 787.366 C 686.738 784.725,695.850 782.100,697.500 781.532 C 703.691 779.403,706.391 782.267,708.709 793.423 M383.238 798.257 C 377.044 799.717,364.973 804.460,356.415 808.796 C 332.421 820.955,279.000 855.386,279.000 858.691 C 279.000 862.694,283.977 860.510,307.690 846.104 C 332.831 830.830,339.123 831.402,315.702 846.833 C 306.241 853.066,293.166 862.660,286.647 868.155 L 274.794 878.144 278.574 890.762 C 282.288 903.159,282.170 903.584,271.847 915.011 C 259.878 928.259,256.064 942.486,260.985 955.531 C 265.124 966.503,281.528 984.000,287.677 984.000 C 290.707 984.000,289.162 980.815,282.948 974.250 C 255.199 944.933,262.029 926.834,313.500 893.282 C 338.682 876.867,350.142 870.819,402.753 846.177 C 426.480 835.063,433.806 825.076,428.788 810.683 C 423.763 796.268,408.891 792.211,383.238 798.257 M646.339 815.250 C 648.304 821.671,647.627 821.995,632.452 821.887 L 616.500 821.775 628.465 811.538 C 640.790 800.992,642.058 801.256,646.339 815.250 M730.982 879.069 C 732.754 885.707,733.370 891.653,732.352 892.281 C 726.916 895.635,694.285 902.482,692.470 900.648 C 691.301 899.467,689.058 892.753,687.486 885.728 C 684.729 873.406,684.907 872.895,692.564 871.216 C 696.929 870.259,701.850 869.025,703.500 868.474 C 705.150 867.924,711.284 867.367,717.130 867.237 C 727.073 867.015,727.969 867.781,730.982 879.069 M385.816 883.262 C 374.440 887.366,358.039 894.312,349.369 898.699 C 330.111 908.443,293.390 935.856,291.456 941.933 C 290.211 945.844,290.781 945.844,296.298 941.933 C 331.514 916.969,345.065 908.573,354.000 906.177 C 362.526 903.892,363.450 904.034,358.916 906.931 C 332.127 924.052,304.079 944.931,299.337 951.283 C 294.678 957.523,294.092 960.973,296.284 969.253 C 298.795 978.741,298.000 980.675,285.545 995.354 C 270.255 1013.375,268.777 1022.958,278.788 1039.158 C 285.519 1050.049,307.871 1067.129,311.129 1063.871 C 312.239 1062.761,306.227 1054.797,297.766 1046.176 C 275.594 1023.580,275.334 1019.134,294.992 998.616 C 309.110 983.880,318.636 978.057,369.883 952.842 C 437.354 919.643,447.000 912.870,447.000 898.698 C 447.000 877.032,421.160 870.513,385.816 883.262 M669.041 885.750 C 669.063 887.813,669.896 892.538,670.891 896.250 C 672.605 902.646,671.856 902.993,656.600 902.875 L 640.500 902.750 652.250 892.375 C 664.734 881.352,668.975 879.679,669.041 885.750 M484.027 910.895 C 484.938 913.978,487.885 925.275,490.574 936.000 C 495.503 955.654,501.223 966.524,500.755 955.350 C 500.193 941.907,490.192 907.891,486.435 906.642 C 483.651 905.716,482.893 907.057,484.027 910.895 M891.000 921.329 C 849.033 923.030,831.033 925.459,772.722 937.294 C 734.895 944.972,693.720 953.982,681.222 957.318 C 650.665 965.474,599.427 986.074,583.566 996.580 C 561.583 1011.141,557.885 1033.496,576.203 1041.084 C 584.739 1044.620,589.976 1043.450,641.492 1026.505 C 705.438 1005.471,760.420 991.528,797.750 986.878 C 826.461 983.302,901.467 972.897,936.000 967.701 C 961.010 963.937,959.833 965.911,953.593 938.187 C 951.816 930.293,948.158 922.854,945.436 921.599 C 942.721 920.347,918.225 920.225,891.000 921.329 M752.842 965.250 C 754.561 971.438,755.974 977.460,755.983 978.634 C 756.001 980.854,741.318 985.234,722.679 988.570 C 712.035 990.475,711.808 990.306,708.744 978.236 C 707.031 971.487,706.714 965.295,708.040 964.476 C 710.170 963.159,742.134 954.899,747.609 954.250 C 748.769 954.112,751.124 959.063,752.842 965.250 M405.735 965.481 C 390.374 970.944,319.887 1012.019,303.629 1024.981 C 299.158 1028.546,296.452 1032.423,297.616 1033.598 C 298.781 1034.772,315.869 1026.118,335.591 1014.366 C 355.313 1002.615,373.260 993.030,375.474 993.067 C 377.689 993.104,368.940 998.825,356.033 1005.780 C 343.126 1012.735,328.477 1021.839,323.479 1026.012 C 314.620 1033.407,314.481 1033.931,317.942 1046.783 L 321.492 1059.968 307.420 1071.996 C 294.254 1083.250,293.447 1084.771,294.901 1095.607 C 297.081 1111.860,308.993 1133.901,318.629 1139.511 C 330.493 1146.417,332.928 1140.944,321.848 1132.273 C 315.890 1127.609,309.998 1118.497,305.956 1107.693 L 299.532 1090.524 311.016 1080.725 C 330.194 1064.359,348.562 1053.610,388.926 1035.130 C 453.390 1005.616,463.386 998.818,466.703 982.234 C 470.611 962.693,438.436 953.851,405.735 965.481 M688.321 982.854 C 689.405 987.174,689.889 991.093,689.396 991.564 C 686.884 993.966,654.006 996.320,654.043 994.096 C 654.083 991.718,679.969 975.602,684.425 975.182 C 685.483 975.082,687.237 978.534,688.321 982.854 M1004.771 1014.897 C 1006.213 1018.691,1007.867 1027.128,1008.447 1033.647 L 1009.500 1045.500 995.675 1046.397 L 981.850 1047.294 977.339 1031.397 C 974.858 1022.654,973.302 1014.952,973.881 1014.283 C 974.742 1013.288,989.903 1009.818,999.824 1008.345 C 1001.103 1008.155,1003.329 1011.104,1004.771 1014.897 M769.722 1052.250 C 770.731 1056.788,772.147 1062.702,772.868 1065.394 C 773.915 1069.306,770.262 1071.026,754.651 1073.972 C 743.911 1075.998,734.219 1077.846,733.114 1078.078 C 730.631 1078.599,722.430 1055.570,724.397 1053.603 C 726.189 1051.811,755.744 1044.597,762.693 1044.255 C 766.014 1044.092,768.547 1046.974,769.722 1052.250 M708.000 1079.073 C 708.000 1081.233,705.638 1083.084,702.750 1083.187 C 699.863 1083.289,691.763 1084.032,684.750 1084.837 C 677.738 1085.641,672.000 1085.110,672.000 1083.654 C 672.000 1082.199,678.413 1077.451,686.250 1073.103 C 699.317 1065.853,700.811 1065.610,704.250 1070.172 C 706.313 1072.908,708.000 1076.914,708.000 1079.073 M1085.250 1067.149 C 1080.713 1067.836,1077.000 1069.842,1077.000 1071.607 C 1077.000 1073.698,1081.847 1074.151,1090.919 1072.908 C 1098.574 1071.858,1110.387 1070.865,1117.169 1070.701 C 1127.780 1070.444,1128.454 1070.067,1122.000 1068.000 C 1114.024 1065.446,1098.817 1065.094,1085.250 1067.149 M1009.487 1071.021 C 1007.223 1074.685,1015.453 1078.310,1019.856 1075.589 C 1021.585 1074.520,1023.000 1072.376,1023.000 1070.823 C 1023.000 1067.040,1011.847 1067.203,1009.487 1071.021 M909.561 1076.410 C 901.165 1077.029,897.060 1078.617,897.872 1080.932 C 899.375 1085.221,920.138 1085.062,924.472 1080.728 C 928.719 1076.481,924.638 1075.300,909.561 1076.410 M984.076 1100.924 C 974.672 1110.328,973.602 1121.412,978.997 1153.500 C 986.324 1197.074,985.579 1235.008,976.708 1269.976 C 965.586 1313.820,948.122 1339.118,908.780 1368.373 C 897.351 1376.872,888.000 1384.972,888.000 1386.375 C 888.000 1390.454,918.223 1375.957,940.990 1360.958 C 972.440 1340.239,993.635 1313.344,1006.299 1278.087 C 1016.766 1248.946,1018.214 1228.294,1013.205 1179.587 C 1010.948 1157.634,1010.177 1139.008,1011.493 1138.196 C 1012.808 1137.383,1014.758 1142.181,1015.825 1148.859 C 1018.487 1165.504,1023.015 1164.161,1022.934 1146.750 C 1022.830 1124.331,1006.714 1095.000,994.500 1095.000 C 992.025 1095.000,987.334 1097.666,984.076 1100.924 M910.364 1105.364 C 901.536 1114.192,900.789 1128.062,907.448 1159.501 C 916.355 1201.552,912.196 1256.547,897.069 1296.732 C 888.009 1320.801,858.128 1350.900,828.000 1366.306 C 805.777 1377.670,792.000 1387.703,792.000 1392.523 C 792.000 1396.673,811.063 1395.293,826.716 1390.011 C 844.296 1384.077,886.921 1356.039,906.352 1337.626 C 931.717 1313.589,942.396 1290.262,949.444 1243.500 C 954.598 1209.296,955.165 1188.487,951.115 1182.084 C 947.360 1176.146,946.545 1179.138,942.188 1214.856 C 938.888 1241.911,935.100 1252.652,929.975 1249.485 C 928.685 1248.687,928.963 1242.290,930.592 1235.268 C 934.885 1216.763,931.669 1147.842,925.608 1128.454 C 922.849 1119.629,921.473 1111.529,922.551 1110.454 C 926.489 1106.527,939.230 1125.918,944.012 1143.117 C 949.509 1162.890,955.499 1164.184,952.455 1144.942 C 949.493 1126.212,939.494 1107.409,929.842 1102.418 C 918.844 1096.731,919.023 1096.704,910.364 1105.364 M1048.364 1102.229 C 1041.453 1107.282,1041.047 1123.289,1046.401 1179.730 C 1054.319 1263.219,1033.526 1314.921,972.000 1364.729 C 958.586 1375.588,972.712 1371.878,991.831 1359.520 C 1022.949 1339.408,1060.500 1291.944,1070.278 1260.367 C 1078.240 1234.649,1077.201 1161.834,1068.410 1129.551 C 1060.684 1101.183,1056.882 1096.000,1048.364 1102.229 M842.973 1115.216 C 835.928 1124.172,835.996 1127.042,844.098 1162.500 C 853.105 1201.922,848.782 1249.916,833.483 1280.341 C 826.258 1294.710,816.651 1306.064,793.005 1328.175 C 763.373 1355.884,756.735 1366.168,766.150 1369.781 C 776.569 1373.779,834.849 1337.680,855.078 1314.699 C 871.892 1295.598,885.118 1266.459,888.762 1240.486 C 891.819 1218.699,889.631 1185.000,885.159 1185.000 C 882.050 1185.000,879.081 1199.997,878.701 1217.625 C 878.340 1234.391,875.451 1245.683,871.156 1247.115 C 869.032 1247.823,867.865 1234.467,867.637 1206.837 C 867.392 1177.216,865.670 1158.910,861.560 1142.250 C 858.406 1129.463,856.970 1119.000,858.370 1119.000 C 862.068 1119.000,875.295 1140.104,877.643 1149.750 C 878.747 1154.288,881.012 1158.000,882.675 1158.000 C 884.348 1158.000,884.891 1154.983,883.891 1151.250 C 882.896 1147.538,882.063 1141.705,882.041 1138.290 C 881.987 1130.071,862.037 1107.000,854.984 1107.000 C 851.932 1107.000,846.527 1110.697,842.973 1115.216 M721.022 1122.348 C 722.085 1126.282,724.584 1137.263,726.577 1146.750 C 730.580 1165.808,735.624 1170.586,732.912 1152.750 C 728.262 1122.173,727.113 1117.871,723.252 1116.584 C 720.160 1115.553,719.587 1117.034,721.022 1122.348 M628.702 1163.275 C 631.175 1180.329,632.716 1183.484,636.651 1179.549 C 640.851 1175.349,636.507 1152.837,631.096 1150.760 C 627.374 1149.332,626.980 1151.394,628.702 1163.275 M442.848 1220.250 C 443.927 1224.788,445.887 1230.525,447.203 1233.000 C 449.252 1236.853,449.888 1236.744,451.622 1232.243 C 454.547 1224.650,450.651 1212.000,445.386 1212.000 C 442.001 1212.000,441.372 1214.045,442.848 1220.250 M390.776 1246.809 C 391.632 1254.404,394.606 1262.842,397.385 1265.559 C 402.108 1270.178,402.314 1269.717,400.546 1258.500 C 397.132 1236.846,395.927 1233.000,392.553 1233.000 C 390.366 1233.000,389.755 1237.749,390.776 1246.809 M355.226 1256.250 C 352.405 1275.023,357.619 1298.843,369.748 1322.600 C 381.033 1344.703,402.821 1369.701,408.008 1366.495 C 410.411 1365.010,409.180 1361.885,404.038 1356.421 C 395.909 1347.783,377.688 1313.373,370.590 1293.255 C 368.135 1286.297,365.237 1271.918,364.149 1261.302 C 363.061 1250.686,361.091 1242.000,359.770 1242.000 C 358.448 1242.000,356.404 1248.413,355.226 1256.250 M724.500 1249.266 C 682.118 1262.913,618.000 1293.134,618.000 1299.463 C 618.000 1303.277,627.331 1300.308,648.142 1289.872 C 671.291 1278.265,734.000 1254.000,740.850 1254.000 C 749.253 1254.000,756.195 1250.742,754.306 1247.686 C 752.005 1243.963,738.790 1244.664,724.500 1249.266 M793.377 1248.200 C 790.600 1252.693,791.276 1252.938,812.250 1255.034 C 824.104 1256.219,831.000 1255.794,831.000 1253.880 C 831.000 1246.562,797.514 1241.506,793.377 1248.200 M699.750 1349.163 C 687.306 1353.464,682.605 1359.000,691.398 1359.000 C 697.489 1359.000,717.000 1349.431,717.000 1346.444 C 717.000 1343.440,715.730 1343.640,699.750 1349.163 M542.250 1392.519 C 524.956 1401.902,519.100 1409.113,531.750 1405.449 C 544.334 1401.805,565.225 1390.519,566.365 1386.750 C 568.191 1380.716,560.701 1382.508,542.250 1392.519 M773.495 1428.355 C 799.760 1428.760,790.609 1433.027,762.150 1433.645 C 749.495 1433.920,746.608 1434.808,749.376 1437.576 C 754.677 1442.877,803.389 1440.661,828.926 1433.956 C 840.701 1430.865,850.419 1428.597,850.520 1428.918 C 850.622 1429.238,854.395 1440.975,858.904 1455.000 C 863.413 1469.025,867.080 1481.462,867.051 1482.637 C 867.023 1483.813,869.858 1492.413,873.350 1501.748 C 877.674 1513.303,880.484 1517.454,882.154 1514.752 C 885.182 1509.851,883.389 1499.429,874.166 1468.345 C 866.868 1443.746,864.792 1427.409,869.631 1432.650 C 875.008 1438.473,896.077 1515.132,903.809 1557.000 C 909.346 1586.984,910.646 1648.902,905.860 1654.669 C 899.021 1662.909,894.421 1659.451,892.668 1644.750 C 887.478 1601.253,884.490 1585.978,877.502 1567.231 C 873.252 1555.829,867.334 1543.298,864.350 1539.385 L 858.924 1532.271 826.425 1537.029 C 807.696 1539.772,792.069 1543.645,789.543 1546.171 C 785.699 1550.015,786.325 1555.801,794.631 1593.226 C 803.583 1633.561,805.021 1650.430,797.721 1629.490 C 792.364 1614.121,788.973 1621.657,790.790 1644.896 C 793.546 1680.143,788.306 1713.403,777.079 1731.928 C 764.917 1751.996,752.059 1761.000,735.564 1761.000 C 719.476 1761.000,719.277 1756.362,735.255 1753.807 C 762.152 1749.506,786.016 1713.059,785.988 1676.325 C 785.962 1642.067,769.873 1561.397,749.326 1492.500 C 734.038 1441.236,733.870 1440.366,737.663 1432.041 C 739.978 1426.961,742.702 1425.011,745.815 1426.206 C 748.387 1427.193,760.843 1428.160,773.495 1428.355 M642.000 1451.026 C 586.188 1460.270,580.854 1461.906,577.754 1470.720 C 575.270 1477.783,578.102 1485.239,599.386 1527.673 C 622.779 1574.311,634.261 1592.739,637.751 1589.249 C 638.631 1588.369,637.123 1582.440,634.398 1576.074 C 624.213 1552.274,600.000 1483.552,600.000 1478.443 C 600.000 1469.883,612.333 1464.188,637.736 1461.017 C 671.585 1456.792,678.000 1455.078,678.000 1450.262 C 678.000 1445.330,676.156 1445.369,642.000 1451.026 M702.000 1483.672 C 702.000 1492.021,708.661 1515.054,711.601 1516.871 C 714.286 1518.531,712.613 1497.165,709.046 1484.250 C 707.249 1477.744,702.000 1477.313,702.000 1483.672 M612.000 1483.387 C 612.000 1488.819,624.942 1517.772,626.845 1516.596 C 630.624 1514.260,620.517 1482.000,616.006 1482.000 C 613.803 1482.000,612.000 1482.624,612.000 1483.387 M816.226 1570.655 C 809.344 1573.667,806.947 1576.147,808.965 1578.165 C 812.645 1581.845,835.700 1575.023,834.869 1570.500 C 833.993 1565.741,827.330 1565.796,816.226 1570.655 M846.750 1604.197 C 831.869 1605.537,831.977 1604.976,837.353 1653.000 C 839.108 1668.675,841.434 1724.928,842.522 1778.006 C 843.610 1831.084,845.586 1875.595,846.913 1876.919 C 848.240 1878.243,850.406 1877.579,851.725 1875.444 C 858.882 1863.864,868.729 1708.031,865.782 1653.000 C 864.698 1632.773,865.117 1616.680,866.795 1614.101 C 869.589 1609.806,865.631 1601.341,861.383 1602.524 C 860.347 1602.812,853.763 1603.565,846.750 1604.197 M708.000 1633.315 C 708.000 1634.038,712.050 1639.064,717.000 1644.483 C 727.285 1655.744,728.466 1666.396,721.143 1681.829 C 715.465 1693.794,705.905 1697.238,694.248 1691.520 C 686.062 1687.504,684.237 1685.106,678.632 1671.000 L 675.652 1663.500 672.258 1672.125 C 665.164 1690.149,689.921 1718.541,709.356 1714.671 C 732.670 1710.029,748.611 1676.420,737.633 1655.053 C 732.073 1644.229,719.238 1632.000,713.439 1632.000 C 710.447 1632.000,708.000 1632.592,708.000 1633.315 M676.670 1644.668 C 671.308 1652.323,670.708 1657.847,674.954 1660.471 C 677.644 1662.134,689.962 1645.566,689.989 1640.250 C 690.013 1635.398,681.089 1638.358,676.670 1644.668 M812.250 1759.732 C 809.080 1762.927,809.431 1871.294,812.617 1873.263 C 816.869 1875.891,818.955 1855.096,818.612 1813.500 C 818.281 1773.394,816.194 1755.756,812.250 1759.732 M762.106 1808.803 C 757.167 1818.030,758.136 1839.000,763.500 1839.000 C 765.975 1839.000,768.000 1836.975,768.000 1834.500 C 768.000 1832.025,769.918 1830.000,772.261 1830.000 C 775.292 1830.000,777.126 1835.632,778.611 1849.500 C 779.759 1860.225,781.892 1869.000,783.349 1869.000 C 786.310 1869.000,786.935 1820.294,784.109 1809.750 C 781.746 1800.933,766.665 1800.284,762.106 1808.803 " stroke="none" fill="black" fill-rule="evenodd"/></svg>